# xmcd CD database file
#
# Track frame offsets:
#	150
#	13838
#	25138
#	38795
#	57319
#	72368
#	88222
#	102637
#	119925
#	130578
#	145366
#	161780
#	173781
#	188633
#	200628
#	215088
#	228082
#	240503
#
# Disc length: 3353 seconds
#
# Revision: 0
# Processed by: cddbd v1.5.2PL0 Copyright (c) Steve Scherf et al.
# Submitted via: ACXtractor (MTCDDB.DLL V2003.12.21)
#
DISCID=0e0d1712
DTITLE=Reg Lindsay - The Nashville Years - No Dress Rehearsal
DYEAR=2008
DGENRE=Country
TTITLE0=The Empty Arms Hotel
TTITLE1=Teach Your Children
TTITLE2=Loving Arms
TTITLE3=Heroes
TTITLE4=If a Waltz Ain't Three Quarter Time
TTITLE5=You're Looking for a Good Time ( I'm Looking for a Lifetime)
TTITLE6=Pull Away
TTITLE7=Seven Spanish Angels
TTITLE8=Southern Bound
TTITLE9=She Makes Love feel good To Me
TTITLE10=I Don't Wanna Want You
TTITLE11=Just Don't Waste my Time
TTITLE12=Rhinestones are Forever
TTITLE13=These Memories Won't let me say Goodbye
TTITLE14=Ain't Gonna let You Sock it to Me
TTITLE15=There You Go (Running down my Cheek)
TTITLE16=Blue
TTITLE17=If I'd Know that I Was Gonna Live this Long
EXTD=ID3G:   2 YEAR: 2008
EXTT0=
EXTT1=
EXTT2=
EXTT3=
EXTT4=
EXTT5=
EXTT6=
EXTT7=
EXTT8=
EXTT9=
EXTT10=
EXTT11=
EXTT12=
EXTT13=
EXTT14=
EXTT15=
EXTT16=
EXTT17=
PLAYORDER=
